<?xml version="1.0" standalone="no"?>
<!DOCTYPE svg PUBLIC "-//W3C//DTD SVG 20010904//EN"
 "http://www.w3.org/TR/2001/REC-SVG-20010904/DTD/svg10.dtd">
<svg version="1.0" xmlns="http://www.w3.org/2000/svg"
 width="92.000000pt" height="84.000000pt" viewBox="0 0 92.000000 84.000000"
 preserveAspectRatio="xMidYMid meet">

<g transform="translate(0.000000,84.000000) scale(0.100000,-0.100000)"
fill="#000000" stroke="none">
<path d="M129 691 c-20 -16 -22 -23 -14 -47 l10 -29 340 0 340 0 10 29 c8 24
6 31 -14 47 -22 18 -44 19 -336 19 -292 0 -314 -1 -336 -19z"/>
<path d="M120 431 c-14 -28 -13 -38 10 -61 19 -19 33 -20 335 -20 302 0 316 1
335 20 23 23 24 33 10 61 -10 18 -25 19 -345 19 -320 0 -335 -1 -345 -19z"/>
<path d="M426 178 c-20 -29 -20 -34 4 -58 18 -18 33 -20 188 -20 151 0 171 2
185 18 21 23 22 46 1 66 -13 13 -45 16 -189 16 -168 0 -174 -1 -189 -22z"/>
</g>
</svg>
